%TF.GenerationSoftware,KiCad,Pcbnew,7.0.2-0*%
%TF.CreationDate,2024-07-16T23:18:08+09:00*%
%TF.ProjectId,am-pcb2,616d2d70-6362-4322-9e6b-696361645f70,rev?*%
%TF.SameCoordinates,Original*%
%TF.FileFunction,Soldermask,Top*%
%TF.FilePolarity,Negative*%
%FSLAX46Y46*%
G04 Gerber Fmt 4.6, Leading zero omitted, Abs format (unit mm)*
G04 Created by KiCad (PCBNEW 7.0.2-0) date 2024-07-16 23:18:08*
%MOMM*%
%LPD*%
G01*
G04 APERTURE LIST*
%ADD10C,4.800000*%
%ADD11C,1.600000*%
%ADD12O,1.600000X1.600000*%
%ADD13C,2.000000*%
%ADD14R,1.500000X1.500000*%
%ADD15C,1.500000*%
%ADD16C,1.700000*%
%ADD17R,1.600000X1.600000*%
%ADD18R,1.800000X1.800000*%
%ADD19C,1.800000*%
%ADD20O,1.400000X1.800000*%
%ADD21O,1.700000X1.700000*%
%ADD22C,2.600000*%
%ADD23C,2.500000*%
%ADD24R,2.000000X2.000000*%
%ADD25O,2.000000X2.000000*%
%ADD26O,1.800000X1.400000*%
%ADD27C,1.750000*%
%ADD28O,2.200000X1.200000*%
%ADD29O,1.200000X2.200000*%
G04 APERTURE END LIST*
D10*
%TO.C,Z3*%
X180340000Y-133350000D03*
%TD*%
D11*
%TO.C,R24*%
X193040000Y-91440000D03*
D12*
X193040000Y-88900000D03*
%TD*%
D13*
%TO.C,TP64*%
X213360000Y-104140000D03*
%TD*%
%TO.C,TP8*%
X208280000Y-121920000D03*
%TD*%
D11*
%TO.C,C8*%
X210820000Y-101600000D03*
X210820000Y-99060000D03*
%TD*%
%TO.C,C54*%
X264160000Y-78820000D03*
X264160000Y-83820000D03*
%TD*%
D13*
%TO.C,TP91*%
X208280000Y-71120000D03*
%TD*%
D11*
%TO.C,C75*%
X218440000Y-114380000D03*
X218440000Y-119380000D03*
%TD*%
%TO.C,L71*%
X236220000Y-114300000D03*
D12*
X236220000Y-116840000D03*
%TD*%
D11*
%TO.C,L61*%
X190500000Y-114300000D03*
D12*
X187960000Y-114300000D03*
%TD*%
D11*
%TO.C,R76*%
X228600000Y-121920000D03*
D12*
X226060000Y-121920000D03*
%TD*%
D14*
%TO.C,Q61*%
X198120000Y-116840000D03*
D15*
X198120000Y-114300000D03*
X198120000Y-111760000D03*
%TD*%
D13*
%TO.C,TP75*%
X248920000Y-121920000D03*
%TD*%
D11*
%TO.C,C16*%
X195580000Y-66040000D03*
X195580000Y-68580000D03*
%TD*%
D16*
%TO.C,J85*%
X185420000Y-134620000D03*
X187960000Y-134620000D03*
X190500000Y-134620000D03*
X193040000Y-134620000D03*
X195580000Y-134620000D03*
X198120000Y-134620000D03*
X200660000Y-134620000D03*
X203200000Y-134620000D03*
X185420000Y-132080000D03*
X187960000Y-132080000D03*
X190500000Y-132080000D03*
X193040000Y-132080000D03*
X195580000Y-132080000D03*
X198120000Y-132080000D03*
X200660000Y-132080000D03*
X203200000Y-132080000D03*
X185420000Y-129540000D03*
X187960000Y-129540000D03*
X190540000Y-129540000D03*
X193040000Y-129540000D03*
X195580000Y-129540000D03*
X198120000Y-129540000D03*
X200660000Y-129540000D03*
X203200000Y-129540000D03*
X185420000Y-126960000D03*
X187960000Y-126960000D03*
X190540000Y-126960000D03*
X193040000Y-126960000D03*
X195580000Y-126960000D03*
X198120000Y-126960000D03*
X200660000Y-126960000D03*
X203200000Y-126960000D03*
%TD*%
D17*
%TO.C,U71*%
X220990000Y-119380000D03*
D12*
X223530000Y-119380000D03*
X226070000Y-119380000D03*
X228610000Y-119380000D03*
X228610000Y-111760000D03*
X226070000Y-111760000D03*
X223530000Y-111760000D03*
X220990000Y-111760000D03*
%TD*%
D18*
%TO.C,D82*%
X233680000Y-91440000D03*
D19*
X233680000Y-93980000D03*
%TD*%
D16*
%TO.C,TP46*%
X193040000Y-45720000D03*
%TD*%
D13*
%TO.C,TP86*%
X182880000Y-127000000D03*
%TD*%
D20*
%TO.C,T1*%
X200950000Y-47970000D03*
X203200000Y-47970000D03*
X205450000Y-47970000D03*
X205450000Y-43470000D03*
X200950000Y-43470000D03*
D13*
X199600000Y-45720000D03*
X206800000Y-45720000D03*
%TD*%
%TO.C,TP24*%
X215900000Y-71120000D03*
%TD*%
D11*
%TO.C,R33*%
X223520000Y-58420000D03*
D12*
X223520000Y-60960000D03*
%TD*%
D21*
%TO.C,J83*%
X246380000Y-48260000D03*
X248920000Y-48260000D03*
X251460000Y-48260000D03*
X254000000Y-48260000D03*
X256540000Y-48260000D03*
X246380000Y-45720000D03*
X248920000Y-45720000D03*
X251460000Y-45720000D03*
X254000000Y-45720000D03*
X256540000Y-45720000D03*
X246380000Y-43180000D03*
X248920000Y-43180000D03*
X251460000Y-43180000D03*
X254000000Y-43180000D03*
X256540000Y-43180000D03*
%TD*%
D11*
%TO.C,C74*%
X226060000Y-109220000D03*
X231060000Y-109220000D03*
%TD*%
%TO.C,C21*%
X180340000Y-73660000D03*
X180340000Y-76200000D03*
%TD*%
D13*
%TO.C,TP76*%
X271780000Y-119380000D03*
%TD*%
D11*
%TO.C,C34*%
X228600000Y-58420000D03*
X228600000Y-60960000D03*
%TD*%
%TO.C,C40*%
X254000000Y-60960000D03*
X256540000Y-60960000D03*
%TD*%
D13*
%TO.C,TP85*%
X226060000Y-43180000D03*
%TD*%
D11*
%TO.C,R12*%
X208280000Y-63500000D03*
D12*
X208280000Y-60960000D03*
%TD*%
D11*
%TO.C,C86*%
X264160000Y-119380000D03*
X264160000Y-121920000D03*
%TD*%
%TO.C,C55*%
X271790000Y-86350000D03*
X271790000Y-88890000D03*
%TD*%
%TO.C,C61*%
X243850000Y-81270000D03*
X243850000Y-76270000D03*
%TD*%
D16*
%TO.C,TP48*%
X208280000Y-129540000D03*
%TD*%
D11*
%TO.C,C23*%
X200660000Y-81280000D03*
X200660000Y-83820000D03*
%TD*%
D16*
%TO.C,TP42*%
X248920000Y-129540000D03*
%TD*%
D11*
%TO.C,R71*%
X226060000Y-104140000D03*
D12*
X226060000Y-106680000D03*
%TD*%
D11*
%TO.C,L22*%
X187960000Y-91440000D03*
D12*
X187960000Y-88900000D03*
%TD*%
D11*
%TO.C,R62*%
X215900000Y-104140000D03*
D12*
X218440000Y-104140000D03*
%TD*%
D11*
%TO.C,R11*%
X200660000Y-53340000D03*
D12*
X200660000Y-55880000D03*
%TD*%
D13*
%TO.C,TP51*%
X226060000Y-48260000D03*
%TD*%
D11*
%TO.C,R75*%
X213360000Y-111760000D03*
D12*
X213360000Y-114300000D03*
%TD*%
D13*
%TO.C,TP73*%
X243841000Y-104140000D03*
%TD*%
D10*
%TO.C,Z1*%
X271272000Y-44450000D03*
%TD*%
D11*
%TO.C,C33*%
X231140000Y-58420000D03*
X231140000Y-60960000D03*
%TD*%
%TO.C,R64*%
X193040000Y-119380000D03*
D12*
X193040000Y-116840000D03*
%TD*%
D13*
%TO.C,TP96*%
X271780000Y-99060000D03*
%TD*%
D12*
%TO.C,*%
X259080000Y-106680000D03*
%TD*%
D11*
%TO.C,C66*%
X195580000Y-116840000D03*
X195580000Y-119380000D03*
%TD*%
%TO.C,R68*%
X200660000Y-119380000D03*
D12*
X200660000Y-116840000D03*
%TD*%
D11*
%TO.C,C52*%
X261620000Y-88890000D03*
X261620000Y-86350000D03*
%TD*%
D14*
%TO.C,Q11*%
X198120000Y-60960000D03*
D15*
X198120000Y-63500000D03*
X198120000Y-66040000D03*
%TD*%
D11*
%TO.C,C71*%
X213360000Y-106680000D03*
X213360000Y-109220000D03*
%TD*%
D13*
%TO.C,TP1*%
X215900000Y-78740000D03*
%TD*%
D11*
%TO.C,C44*%
X269240000Y-68580000D03*
X266700000Y-68580000D03*
%TD*%
%TO.C,C60*%
X248930000Y-86350000D03*
X251470000Y-86350000D03*
%TD*%
D13*
%TO.C,TP50*%
X177800000Y-48260000D03*
%TD*%
D11*
%TO.C,C22*%
X203200000Y-76200000D03*
X203200000Y-78740000D03*
%TD*%
D14*
%TO.C,U1*%
X227140000Y-132080000D03*
D15*
X227140000Y-129540000D03*
%TD*%
D11*
%TO.C,R21*%
X200660000Y-76200000D03*
D12*
X200660000Y-78740000D03*
%TD*%
D11*
%TO.C,C72*%
X233680000Y-106680000D03*
X233680000Y-109220000D03*
%TD*%
%TO.C,R53*%
X269240000Y-78740000D03*
D12*
X266700000Y-78740000D03*
%TD*%
D11*
%TO.C,C59*%
X261620000Y-76190000D03*
X266620000Y-76190000D03*
%TD*%
D22*
%TO.C,J3*%
X254000000Y-129540000D03*
X254000000Y-134620000D03*
X259080000Y-129540000D03*
X259080000Y-134620000D03*
D23*
X256640000Y-132005000D03*
%TD*%
D11*
%TO.C,R22*%
X215900000Y-63500000D03*
D12*
X215900000Y-66040000D03*
%TD*%
D13*
%TO.C,TP87*%
X243840000Y-45720000D03*
%TD*%
D11*
%TO.C,C17*%
X226060000Y-68580000D03*
X226060000Y-71120000D03*
%TD*%
D24*
%TO.C,D21*%
X190500000Y-88900000D03*
D25*
X190500000Y-93980000D03*
%TD*%
D13*
%TO.C,TP5*%
X269240000Y-76190000D03*
%TD*%
D15*
%TO.C,X61*%
X188160000Y-106680000D03*
X193040000Y-106680000D03*
%TD*%
D13*
%TO.C,TP6*%
X266700000Y-86360000D03*
%TD*%
%TO.C,TP99*%
X180340000Y-99060000D03*
%TD*%
D11*
%TO.C,C85*%
X254000000Y-121920000D03*
X256540000Y-121920000D03*
%TD*%
D13*
%TO.C,TP44*%
X271790000Y-83810000D03*
%TD*%
D11*
%TO.C,C82*%
X256540000Y-111760000D03*
X256540000Y-114300000D03*
%TD*%
%TO.C,R52*%
X264170000Y-91430000D03*
D12*
X264170000Y-93970000D03*
%TD*%
D11*
%TO.C,*%
X264160000Y-104140000D03*
%TD*%
%TO.C,R83*%
X266700000Y-119380000D03*
D12*
X266700000Y-121920000D03*
%TD*%
D15*
%TO.C,X21*%
X188160000Y-78740000D03*
X193040000Y-78740000D03*
%TD*%
D11*
%TO.C,R74*%
X218440000Y-109220000D03*
D12*
X220980000Y-109220000D03*
%TD*%
D13*
%TO.C,TP23*%
X208280000Y-76200000D03*
%TD*%
D11*
%TO.C,L11*%
X203200000Y-60960000D03*
D12*
X203200000Y-63500000D03*
%TD*%
D26*
%TO.C,T21*%
X203780000Y-81570000D03*
X203780000Y-83820000D03*
X203780000Y-86070000D03*
X208280000Y-86070000D03*
X208280000Y-81570000D03*
D13*
X206030000Y-80220000D03*
X206030000Y-87420000D03*
%TD*%
D11*
%TO.C,C79*%
X231140000Y-114300000D03*
X233680000Y-114300000D03*
%TD*%
%TO.C,C64*%
X200660000Y-109220000D03*
X200660000Y-111760000D03*
%TD*%
D13*
%TO.C,TP53*%
X238760000Y-88900000D03*
%TD*%
D11*
%TO.C,C7*%
X195580000Y-101600000D03*
X195580000Y-99060000D03*
%TD*%
%TO.C,C37*%
X223520000Y-66040000D03*
X223520000Y-68580000D03*
%TD*%
%TO.C,C83*%
X264160000Y-111760000D03*
X264160000Y-114300000D03*
%TD*%
D14*
%TO.C,Q21*%
X198120000Y-88900000D03*
D15*
X198120000Y-86360000D03*
X198120000Y-83820000D03*
%TD*%
D19*
%TO.C,U81*%
X256278400Y-66471800D03*
X258978400Y-66471800D03*
X259778400Y-70671800D03*
%TD*%
D13*
%TO.C,TP92*%
X241300000Y-55880000D03*
%TD*%
%TO.C,TP84*%
X266700000Y-71120000D03*
%TD*%
D11*
%TO.C,C2*%
X233680000Y-73660000D03*
X233680000Y-71120000D03*
%TD*%
%TO.C,C9*%
X236220000Y-101600000D03*
X236220000Y-99060000D03*
%TD*%
%TO.C,C65*%
X193040000Y-111760000D03*
X195580000Y-111760000D03*
%TD*%
D16*
%TO.C,TP49*%
X271780000Y-127000000D03*
%TD*%
D13*
%TO.C,TP3*%
X180340000Y-55880000D03*
%TD*%
D11*
%TO.C,R32*%
X220980000Y-58420000D03*
D12*
X220980000Y-60960000D03*
%TD*%
D11*
%TO.C,C13*%
X205740000Y-66040000D03*
X203200000Y-66040000D03*
%TD*%
%TO.C,C73*%
X231180000Y-119380000D03*
X236180000Y-119380000D03*
%TD*%
%TO.C,R65*%
X182880000Y-124460000D03*
D12*
X182880000Y-121920000D03*
%TD*%
D11*
%TO.C,R54*%
X266710000Y-93970000D03*
D12*
X266710000Y-91430000D03*
%TD*%
D18*
%TO.C,D81*%
X233680000Y-78740000D03*
D19*
X233680000Y-81280000D03*
%TD*%
D11*
%TO.C,C36*%
X215900000Y-60960000D03*
X218440000Y-60960000D03*
%TD*%
%TO.C,R14*%
X193040000Y-68580000D03*
D12*
X193040000Y-66040000D03*
%TD*%
D11*
%TO.C,R27*%
X185420000Y-93980000D03*
D12*
X187960000Y-93980000D03*
%TD*%
D27*
%TO.C,R55*%
X246390000Y-91430000D03*
X248930000Y-91430000D03*
X251470000Y-91430000D03*
%TD*%
D13*
%TO.C,TP54*%
X259080000Y-88900000D03*
%TD*%
D14*
%TO.C,Q31*%
X226060000Y-66040000D03*
D15*
X226060000Y-63500000D03*
X226060000Y-60960000D03*
%TD*%
D13*
%TO.C,TP83*%
X251735000Y-67085000D03*
%TD*%
D22*
%TO.C,J4*%
X185420000Y-43180000D03*
X185420000Y-48260000D03*
X190500000Y-43180000D03*
X190500000Y-48260000D03*
D23*
X188060000Y-45645000D03*
%TD*%
D11*
%TO.C,C76*%
X213360000Y-119380000D03*
X215900000Y-119380000D03*
%TD*%
D13*
%TO.C,TP11*%
X215900000Y-93980000D03*
%TD*%
D11*
%TO.C,R13*%
X193040000Y-58420000D03*
D12*
X193040000Y-55880000D03*
%TD*%
D17*
%TO.C,C1*%
X220980000Y-81280000D03*
D11*
X223520000Y-81280000D03*
%TD*%
%TO.C,R34*%
X220980000Y-68580000D03*
D12*
X220980000Y-66040000D03*
%TD*%
D11*
%TO.C,C84*%
X236220000Y-83820000D03*
X238760000Y-83820000D03*
%TD*%
%TO.C,C50*%
X266700000Y-63500000D03*
X264160000Y-63500000D03*
%TD*%
%TO.C,C43*%
X269240000Y-66040000D03*
X266700000Y-66040000D03*
%TD*%
%TO.C,C12*%
X200660000Y-58420000D03*
X203200000Y-58420000D03*
%TD*%
D24*
%TO.C,D61*%
X190500000Y-116840000D03*
D25*
X190500000Y-121920000D03*
%TD*%
D14*
%TO.C,IC51*%
X269250000Y-88890000D03*
D15*
X269250000Y-91430000D03*
X269250000Y-93970000D03*
%TD*%
D17*
%TO.C,D84*%
X261620000Y-119380000D03*
D11*
X261620000Y-121920000D03*
%TD*%
%TO.C,C51*%
X269240000Y-81280000D03*
X266700000Y-81280000D03*
%TD*%
%TO.C,R81*%
X228600000Y-83820000D03*
D12*
X231140000Y-83820000D03*
%TD*%
D11*
%TO.C,R73*%
X233680000Y-116840000D03*
D12*
X231140000Y-116840000D03*
%TD*%
D11*
%TO.C,L21*%
X190500000Y-86360000D03*
D12*
X187960000Y-86360000D03*
%TD*%
D11*
%TO.C,C4*%
X205740000Y-96520000D03*
X205740000Y-93980000D03*
%TD*%
%TO.C,C3*%
X256550000Y-96510000D03*
X256550000Y-99050000D03*
%TD*%
D17*
%TO.C,D83*%
X259080000Y-119380000D03*
D11*
X259080000Y-121920000D03*
%TD*%
D13*
%TO.C,TP63*%
X208280000Y-104140000D03*
%TD*%
D11*
%TO.C,R61*%
X200460000Y-104140000D03*
D12*
X200460000Y-106680000D03*
%TD*%
D21*
%TO.C,J82*%
X210820000Y-48260000D03*
X213360000Y-48260000D03*
X215900000Y-48260000D03*
X218440000Y-48260000D03*
X220980000Y-48260000D03*
X210820000Y-45720000D03*
X213360000Y-45720000D03*
X215900000Y-45720000D03*
X218440000Y-45720000D03*
X220980000Y-45720000D03*
X210820000Y-43180000D03*
X213360000Y-43180000D03*
X215900000Y-43180000D03*
X218440000Y-43180000D03*
X220980000Y-43180000D03*
%TD*%
D13*
%TO.C,TP7*%
X213360000Y-116840000D03*
%TD*%
D17*
%TO.C,C6*%
X220980000Y-91440000D03*
D11*
X223520000Y-91440000D03*
%TD*%
%TO.C,C38*%
X234188000Y-55880000D03*
X234188000Y-53340000D03*
%TD*%
%TO.C,R82*%
X228600000Y-88900000D03*
D12*
X231140000Y-88900000D03*
%TD*%
D11*
%TO.C,L42*%
X271780000Y-66040000D03*
D12*
X271780000Y-68580000D03*
%TD*%
D13*
%TO.C,TP95*%
X243840000Y-116840000D03*
%TD*%
D11*
%TO.C,R72*%
X223520000Y-104140000D03*
D12*
X223520000Y-106680000D03*
%TD*%
D11*
%TO.C,C15*%
X187960000Y-63500000D03*
X187960000Y-66040000D03*
%TD*%
D13*
%TO.C,TP97*%
X271780000Y-53340000D03*
%TD*%
%TO.C,TP13*%
X208280000Y-55881000D03*
%TD*%
D11*
%TO.C,R63*%
X198120000Y-106680000D03*
D12*
X198120000Y-109220000D03*
%TD*%
D26*
%TO.C,T71*%
X236764000Y-111470000D03*
X236764000Y-109220000D03*
X236764000Y-106970000D03*
X241264000Y-106970000D03*
X241264000Y-111470000D03*
D13*
X239014000Y-105620000D03*
X239014000Y-112820000D03*
%TD*%
D16*
%TO.C,TP41*%
X208280000Y-132080000D03*
%TD*%
D11*
%TO.C,C41*%
X254000000Y-63500000D03*
X256540000Y-63500000D03*
%TD*%
%TO.C,C67*%
X190500000Y-111760000D03*
X187960000Y-111760000D03*
%TD*%
D26*
%TO.C,T41*%
X251170000Y-59610000D03*
X251170000Y-57360000D03*
X251170000Y-55110000D03*
X246670000Y-55110000D03*
X246670000Y-59610000D03*
D13*
X248920000Y-60960000D03*
X248920000Y-53760000D03*
%TD*%
D11*
%TO.C,C58*%
X256540000Y-91440000D03*
X259080000Y-91440000D03*
%TD*%
%TO.C,C35*%
X215900000Y-58420000D03*
X218440000Y-58420000D03*
%TD*%
%TO.C,L41*%
X269240000Y-63500000D03*
D12*
X271780000Y-63500000D03*
%TD*%
D11*
%TO.C,C63*%
X203200000Y-104140000D03*
X203200000Y-106680000D03*
%TD*%
%TO.C,C32*%
X218440000Y-53340000D03*
X218440000Y-55880000D03*
%TD*%
D13*
%TO.C,TP33*%
X241300000Y-66040000D03*
%TD*%
D11*
%TO.C,C78*%
X215900000Y-116840000D03*
X215900000Y-111840000D03*
%TD*%
%TO.C,C81*%
X254000000Y-111760000D03*
X254000000Y-114300000D03*
%TD*%
D26*
%TO.C,T61*%
X203780000Y-109535400D03*
X203780000Y-111785400D03*
X203780000Y-114035400D03*
X208280000Y-114035400D03*
X208280000Y-109535400D03*
D13*
X206030000Y-108185400D03*
X206030000Y-115385400D03*
%TD*%
D16*
%TO.C,TP45*%
X256540000Y-127000000D03*
%TD*%
D13*
%TO.C,TP10*%
X269240000Y-114300000D03*
%TD*%
D11*
%TO.C,C14*%
X190500000Y-60960000D03*
X193040000Y-60960000D03*
%TD*%
D13*
%TO.C,TP82*%
X205740000Y-127000000D03*
%TD*%
D11*
%TO.C,R15*%
X195580000Y-58420000D03*
D12*
X195580000Y-60960000D03*
%TD*%
D11*
%TO.C,C5*%
X251460000Y-73660000D03*
X251460000Y-71120000D03*
%TD*%
%TO.C,R23*%
X198120000Y-78740000D03*
D12*
X198120000Y-81280000D03*
%TD*%
D26*
%TO.C,T42*%
X263870000Y-59610000D03*
X263870000Y-57360000D03*
X263870000Y-55110000D03*
X259370000Y-55110000D03*
X259370000Y-59610000D03*
D13*
X261620000Y-60960000D03*
X261620000Y-53760000D03*
%TD*%
%TO.C,TP98*%
X238820000Y-96520000D03*
%TD*%
D11*
%TO.C,R25*%
X182880000Y-96520000D03*
D12*
X182880000Y-93980000D03*
%TD*%
D28*
%TO.C,J1*%
X215900000Y-132080000D03*
D29*
X210900000Y-127080000D03*
X213400000Y-127080000D03*
X220900000Y-127080000D03*
X218400000Y-127080000D03*
%TD*%
D11*
%TO.C,C46*%
X256540000Y-58420000D03*
X256540000Y-55880000D03*
%TD*%
%TO.C,C42*%
X269240000Y-60960000D03*
X271780000Y-60960000D03*
%TD*%
%TO.C,C48*%
X269240000Y-58420000D03*
X269240000Y-55880000D03*
%TD*%
D10*
%TO.C,Z4*%
X180340000Y-44450000D03*
%TD*%
D13*
%TO.C,TP88*%
X264160000Y-132080000D03*
%TD*%
D11*
%TO.C,C56*%
X259090000Y-93970000D03*
X256550000Y-93970000D03*
%TD*%
%TO.C,C53*%
X259080000Y-78740000D03*
X259080000Y-81280000D03*
%TD*%
%TO.C,C49*%
X259080000Y-63500000D03*
X261620000Y-63500000D03*
%TD*%
D13*
%TO.C,TP4*%
X185420000Y-55880000D03*
%TD*%
D11*
%TO.C,C31*%
X231140000Y-55880000D03*
X231140000Y-53340000D03*
%TD*%
%TO.C,C11*%
X198120000Y-53340000D03*
X195580000Y-53340000D03*
%TD*%
D13*
%TO.C,TP14*%
X213360000Y-55880000D03*
%TD*%
D11*
%TO.C,C24*%
X193040000Y-83820000D03*
X195580000Y-83820000D03*
%TD*%
%TO.C,R28*%
X200660000Y-91440000D03*
D12*
X200660000Y-88900000D03*
%TD*%
D13*
%TO.C,TP34*%
X246380000Y-66040000D03*
%TD*%
D21*
%TO.C,J81*%
X231140000Y-48260000D03*
X233680000Y-48260000D03*
X236220000Y-48260000D03*
X238760000Y-48260000D03*
X241300000Y-48260000D03*
X231140000Y-45720000D03*
X233680000Y-45720000D03*
X236220000Y-45720000D03*
X238760000Y-45720000D03*
X241300000Y-45720000D03*
X231140000Y-43180000D03*
X233680000Y-43180000D03*
X236220000Y-43180000D03*
X238760000Y-43180000D03*
X241300000Y-43180000D03*
%TD*%
D27*
%TO.C,R26*%
X185420000Y-88900000D03*
X185420000Y-86360000D03*
X185420000Y-83820000D03*
%TD*%
D11*
%TO.C,C57*%
X256540000Y-81350000D03*
X256540000Y-86350000D03*
%TD*%
%TO.C,L81*%
X254000000Y-106680000D03*
D12*
X256540000Y-106680000D03*
%TD*%
D13*
%TO.C,TP93*%
X208280000Y-91440000D03*
%TD*%
D17*
%TO.C,U51*%
X246390000Y-83810000D03*
D12*
X248930000Y-83810000D03*
X251470000Y-83810000D03*
X254010000Y-83810000D03*
X254010000Y-76190000D03*
X251470000Y-76190000D03*
X248930000Y-76190000D03*
X246390000Y-76190000D03*
%TD*%
D11*
%TO.C,C68*%
X256540000Y-76200000D03*
X259080000Y-76200000D03*
%TD*%
D13*
%TO.C,TP9*%
X269240000Y-109220000D03*
%TD*%
D27*
%TO.C,R66*%
X185420000Y-116840000D03*
X185420000Y-114300000D03*
X185420000Y-111760000D03*
%TD*%
D11*
%TO.C,L82*%
X264160000Y-106680000D03*
D12*
X264160000Y-109220000D03*
%TD*%
D11*
%TO.C,C77*%
X215900000Y-121920000D03*
X213360000Y-121920000D03*
%TD*%
D28*
%TO.C,J2*%
X241380000Y-132080000D03*
D29*
X236380000Y-127080000D03*
X238880000Y-127080000D03*
X246380000Y-127080000D03*
X243880000Y-127080000D03*
%TD*%
D11*
%TO.C,R31*%
X220980000Y-53340000D03*
D12*
X220980000Y-55880000D03*
%TD*%
D13*
%TO.C,TP74*%
X248920000Y-106680000D03*
%TD*%
%TO.C,TP94*%
X246380000Y-71120000D03*
%TD*%
D11*
%TO.C,L62*%
X187960000Y-119380000D03*
D12*
X187960000Y-116840000D03*
%TD*%
D10*
%TO.C,Z2*%
X271272000Y-133350000D03*
%TD*%
D13*
%TO.C,TP25*%
X223520000Y-71120000D03*
%TD*%
%TO.C,TP81*%
X261620000Y-45720000D03*
%TD*%
D11*
%TO.C,C26*%
X190500000Y-83820000D03*
X187960000Y-83820000D03*
%TD*%
D13*
%TO.C,TP2*%
X215959000Y-86360000D03*
%TD*%
D11*
%TO.C,C62*%
X182880000Y-101600000D03*
X182880000Y-104140000D03*
%TD*%
%TO.C,C25*%
X195580000Y-88900000D03*
X195580000Y-91440000D03*
%TD*%
D16*
%TO.C,TP47*%
X223520000Y-127000000D03*
%TD*%
D13*
%TO.C,TP43*%
X271780000Y-71120000D03*
%TD*%
D11*
%TO.C,C45*%
X254000000Y-58420000D03*
X254000000Y-55880000D03*
%TD*%
%TO.C,R67*%
X185420000Y-121920000D03*
D12*
X187960000Y-121920000D03*
%TD*%
D14*
%TO.C,Q71*%
X233680000Y-104140000D03*
D15*
X231140000Y-104140000D03*
X228600000Y-104140000D03*
%TD*%
D11*
%TO.C,C80*%
X220980000Y-104140000D03*
X220980000Y-106680000D03*
%TD*%
D26*
%TO.C,T12*%
X185420000Y-61250000D03*
X185420000Y-63500000D03*
X185420000Y-65750000D03*
X180920000Y-65750000D03*
X180920000Y-61250000D03*
D13*
X183170000Y-67100000D03*
X183170000Y-59900000D03*
%TD*%
D11*
%TO.C,C47*%
X266700000Y-58420000D03*
X266700000Y-55880000D03*
%TD*%
D26*
%TO.C,T31*%
X234260000Y-58710000D03*
X234260000Y-60960000D03*
X234260000Y-63210000D03*
X238760000Y-58710000D03*
X238760000Y-63210000D03*
D13*
X236510000Y-57360000D03*
X236510000Y-64560000D03*
%TD*%
M02*
